#define agent1_east_width 64
#define agent1_east_height 64
static unsigned char agent1_east_bits[] = {
   0xff, 0xff, 0xff, 0xff, 0xff, 0xff, 0xff, 0x7f, 0xff, 0xff, 0xff, 0xff,
   0xff, 0xff, 0xff, 0xff, 0xff, 0xff, 0xff, 0xff, 0xff, 0xff, 0xff, 0xff,
   0xff, 0xff, 0xff, 0xff, 0xff, 0xff, 0xff, 0xff, 0xff, 0xff, 0xff, 0xff,
   0xff, 0xff, 0xff, 0xff, 0xff, 0xff, 0xff, 0xff, 0xff, 0xff, 0xff, 0xff,
   0xff, 0xff, 0xff, 0xff, 0xff, 0xff, 0xff, 0xff, 0xff, 0xff, 0xff, 0xff,
   0xf9, 0xff, 0xff, 0xff, 0xff, 0xff, 0xff, 0xff, 0xf9, 0xff, 0xff, 0xff,
   0xff, 0xff, 0xff, 0xff, 0xf9, 0xff, 0xff, 0xff, 0xff, 0xff, 0xff, 0xff,
   0xf9, 0xff, 0xff, 0xff, 0xff, 0xff, 0xff, 0xff, 0xf9, 0xff, 0xff, 0xff,
   0xff, 0xff, 0xff, 0xff, 0xf9, 0xff, 0xff, 0xff, 0xff, 0xff, 0xff, 0xff,
   0xf9, 0xff, 0xff, 0xff, 0xff, 0xff, 0x00, 0x00, 0x00, 0x00, 0xf8, 0xff,
   0xff, 0xff, 0x00, 0x00, 0x00, 0x00, 0xf8, 0xff, 0xff, 0xff, 0xfc, 0xff,
   0xff, 0xff, 0xf9, 0xff, 0xff, 0xff, 0xfc, 0xff, 0xff, 0xff, 0xf9, 0xff,
   0xff, 0xff, 0xfc, 0xff, 0xff, 0xff, 0xf9, 0xff, 0xff, 0xff, 0xfc, 0xff,
   0xff, 0xff, 0xf9, 0xcf, 0xff, 0xff, 0xfc, 0xff, 0xff, 0xff, 0xf9, 0x8f,
   0xff, 0x03, 0xfc, 0xfd, 0xff, 0xff, 0xf9, 0x8f, 0xff, 0xff, 0xfc, 0xf9,
   0xff, 0xff, 0xf9, 0x8f, 0xff, 0xff, 0xfc, 0xf1, 0xff, 0xff, 0x39, 0x80,
   0xff, 0x7f, 0xfc, 0xf9, 0xbf, 0xff, 0x01, 0x80, 0xff, 0xff, 0xfc, 0xfd,
   0x3f, 0xf0, 0x01, 0x80, 0xff, 0x03, 0xfc, 0xff, 0xbf, 0xf7, 0xf9, 0xff,
   0xff, 0xff, 0xfc, 0xff, 0xbf, 0xf7, 0xf9, 0xff, 0xff, 0xff, 0xfc, 0xff,
   0xff, 0xf7, 0xf9, 0xff, 0xff, 0x0f, 0xfc, 0xff, 0xff, 0xf7, 0xf9, 0xff,
   0xff, 0x0f, 0xfc, 0xff, 0xff, 0xf7, 0xf9, 0xff, 0xff, 0x07, 0xfc, 0xff,
   0xff, 0xf7, 0xf9, 0xff, 0xff, 0xff, 0xfc, 0xff, 0xff, 0xf7, 0xf9, 0xff,
   0xff, 0xff, 0xfc, 0xff, 0xff, 0xf7, 0xf9, 0xff, 0xff, 0xff, 0xfc, 0xff,
   0xff, 0xf7, 0xfb, 0xff, 0xff, 0x03, 0xfc, 0xff, 0xff, 0xf7, 0xf9, 0xff,
   0xff, 0x1f, 0xfc, 0xff, 0xff, 0xf7, 0xfb, 0xff, 0xff, 0xff, 0xfc, 0xff,
   0xff, 0xf7, 0xf9, 0xff, 0xff, 0xff, 0xfc, 0xff, 0xff, 0xf7, 0xf9, 0xff,
   0xff, 0xff, 0xfc, 0xff, 0xff, 0xf7, 0xf9, 0xff, 0xff, 0x7f, 0xfc, 0xff,
   0xff, 0xf7, 0xf9, 0xff, 0xff, 0x3f, 0xfc, 0xff, 0xbf, 0xf7, 0x01, 0x80,
   0xff, 0xc3, 0xfc, 0xfd, 0x3f, 0xf0, 0x01, 0x80, 0xff, 0xf9, 0xfc, 0xf9,
   0xbf, 0xff, 0x79, 0x80, 0xff, 0x7f, 0xfc, 0xf1, 0xbf, 0xff, 0xf9, 0x8f,
   0xff, 0xff, 0xfc, 0xf9, 0xff, 0xff, 0xf9, 0x8f, 0xff, 0xff, 0xfc, 0xfd,
   0xff, 0xff, 0xf9, 0x8f, 0xff, 0xff, 0xfc, 0xff, 0xff, 0xff, 0xf9, 0xcf,
   0xff, 0xff, 0xfc, 0xff, 0xff, 0xff, 0xf9, 0xff, 0xff, 0xff, 0xfc, 0xff,
   0xff, 0xff, 0xf9, 0xff, 0xff, 0xff, 0xfc, 0xff, 0xff, 0xff, 0xf9, 0xff,
   0xff, 0xff, 0x00, 0x00, 0x00, 0x00, 0xf8, 0xff, 0xff, 0xff, 0x00, 0x00,
   0x00, 0x00, 0xf8, 0xff, 0xff, 0xff, 0xff, 0xff, 0xf9, 0xff, 0xff, 0xff,
   0xff, 0xff, 0xff, 0xff, 0xf9, 0xff, 0xff, 0xff, 0xff, 0xff, 0xff, 0xff,
   0xf9, 0xff, 0xff, 0xff, 0xff, 0xff, 0xff, 0xff, 0xf9, 0xff, 0xff, 0xff,
   0xff, 0xff, 0xff, 0xff, 0xf9, 0xff, 0xff, 0xff, 0xff, 0xff, 0xff, 0xff,
   0xf9, 0xff, 0xff, 0xff, 0xff, 0xff, 0xff, 0xff, 0xf9, 0xff, 0xff, 0xff,
   0xff, 0xff, 0xff, 0xff, 0xff, 0xff, 0xff, 0xff, 0xff, 0xff, 0xff, 0xff,
   0xff, 0xff, 0xff, 0xff, 0xff, 0xff, 0xff, 0xff, 0xff, 0xff, 0xff, 0xff,
   0xff, 0xff, 0xff, 0xff, 0xff, 0xff, 0xff, 0xff};
