#define east_west_dir_south_width 64
#define east_west_dir_south_height 64
static unsigned char east_west_dir_south_bits[] = {
   0x00, 0x00, 0x00, 0x00, 0x00, 0x00, 0x00, 0x00, 0x00, 0x00, 0x00, 0x00,
   0x00, 0x00, 0x00, 0x00, 0x00, 0x00, 0x00, 0x00, 0x00, 0x00, 0x00, 0x00,
   0x00, 0x00, 0x00, 0x00, 0x00, 0x00, 0x00, 0x00, 0x00, 0x00, 0x00, 0x00,
   0x00, 0x00, 0x00, 0x00, 0x00, 0x00, 0x00, 0x00, 0x00, 0x00, 0x00, 0x00,
   0x00, 0x00, 0x00, 0x00, 0x00, 0x00, 0x00, 0x00, 0x00, 0x00, 0x00, 0x00,
   0x00, 0x00, 0x00, 0x00, 0x00, 0x00, 0x00, 0x00, 0x00, 0x00, 0x00, 0x00,
   0x00, 0x00, 0x00, 0x00, 0x00, 0x00, 0x00, 0x00, 0x00, 0x00, 0x00, 0x00,
   0x00, 0x00, 0x00, 0x00, 0x00, 0x00, 0x00, 0x00, 0x00, 0x00, 0x00, 0x00,
   0x00, 0x00, 0x00, 0x00, 0x00, 0x00, 0x00, 0x00, 0x00, 0x00, 0x00, 0x00,
   0x00, 0x00, 0x00, 0x00, 0x00, 0x00, 0x00, 0x00, 0x00, 0x00, 0x00, 0x00,
   0x00, 0x00, 0x00, 0x00, 0x00, 0x00, 0x00, 0x00, 0x00, 0x00, 0x00, 0x00,
   0x00, 0x00, 0x00, 0x00, 0x00, 0x00, 0x00, 0x00, 0x00, 0x00, 0x00, 0x00,
   0x00, 0x00, 0x00, 0x00, 0x00, 0x00, 0x00, 0x00, 0x00, 0x00, 0x7c, 0x00,
   0x00, 0x00, 0x00, 0x00, 0x00, 0x00, 0x7c, 0x00, 0x00, 0xf0, 0x01, 0x00,
   0x00, 0x00, 0x7c, 0x00, 0x00, 0xf0, 0x01, 0x00, 0x00, 0x00, 0x7c, 0x00,
   0x00, 0xf0, 0x01, 0x00, 0x00, 0x00, 0x7c, 0x00, 0x00, 0xf0, 0x01, 0x00,
   0x00, 0xe0, 0x03, 0x00, 0x00, 0xf0, 0x3f, 0x00, 0x00, 0xe0, 0x03, 0x00,
   0x00, 0x00, 0x3e, 0x00, 0x00, 0xe0, 0x03, 0x00, 0x00, 0x00, 0x3e, 0x00,
   0x00, 0xe0, 0x03, 0x00, 0x00, 0x00, 0x3e, 0x00, 0x00, 0xe0, 0x03, 0x00,
   0x00, 0x00, 0xfe, 0x07, 0x00, 0x1f, 0xfc, 0xff, 0xff, 0xff, 0xc3, 0x07,
   0x00, 0x1f, 0xfc, 0xff, 0xff, 0xff, 0xc3, 0x07, 0x00, 0x1f, 0xfc, 0xff,
   0xff, 0xff, 0xc3, 0x07, 0x00, 0x1f, 0xfc, 0xff, 0xff, 0xff, 0xc3, 0x07,
   0x00, 0x1f, 0xfc, 0xff, 0xff, 0xff, 0x3f, 0x00, 0x00, 0xe0, 0x03, 0x00,
   0x00, 0x00, 0x3e, 0x00, 0x00, 0xe0, 0x03, 0x00, 0x00, 0x00, 0x3e, 0x00,
   0x00, 0xe0, 0x03, 0x00, 0x00, 0x00, 0x3e, 0x00, 0x00, 0xe0, 0x03, 0x00,
   0x00, 0x00, 0x3e, 0x00, 0x00, 0xe0, 0x03, 0x00, 0x00, 0xf0, 0x01, 0x00,
   0x00, 0x00, 0x7c, 0x00, 0x00, 0xf0, 0x01, 0x00, 0x00, 0x00, 0x7c, 0x00,
   0x00, 0xf0, 0x01, 0x00, 0x00, 0x00, 0x7c, 0x00, 0x00, 0xf0, 0x01, 0x00,
   0x00, 0x00, 0x7c, 0x00, 0x00, 0xf0, 0x01, 0x00, 0x00, 0x00, 0x7c, 0x00,
   0x00, 0x00, 0x00, 0x00, 0x00, 0x00, 0x00, 0x00, 0x00, 0x00, 0x00, 0x00,
   0x00, 0x00, 0x00, 0x00, 0x00, 0x00, 0x00, 0x00, 0x00, 0x00, 0x00, 0x00,
   0x00, 0x00, 0x00, 0x00, 0x00, 0x00, 0x00, 0x00, 0x00, 0x00, 0x00, 0x00,
   0x00, 0x00, 0x00, 0x00, 0x00, 0x00, 0x00, 0x00, 0x00, 0x00, 0x00, 0x00,
   0x00, 0x00, 0x00, 0x00, 0x00, 0x00, 0x00, 0x00, 0x00, 0x00, 0x00, 0x00,
   0x00, 0x00, 0x00, 0x00, 0x00, 0x00, 0x00, 0x00, 0x00, 0x00, 0x00, 0x00,
   0x00, 0x00, 0x00, 0x00, 0x00, 0x00, 0x00, 0x00, 0x00, 0x00, 0x00, 0x00,
   0x00, 0x00, 0x00, 0x00, 0x00, 0x00, 0x00, 0x00, 0x00, 0x00, 0x00, 0x00,
   0x00, 0x00, 0x00, 0x00, 0x00, 0x00, 0x00, 0x00, 0x00, 0x00, 0x00, 0x00,
   0x00, 0x00, 0x00, 0x00, 0x00, 0x00, 0x00, 0x00, 0x00, 0x00, 0x00, 0x00,
   0x00, 0x00, 0x00, 0x00, 0x00, 0x00, 0x00, 0x00, 0x00, 0x00, 0x00, 0x00,
   0x00, 0x00, 0x00, 0x00, 0x00, 0x00, 0x00, 0x00, 0x00, 0x00, 0x00, 0x00,
   0x00, 0x00, 0x00, 0x00, 0x00, 0x00, 0x00, 0x00, 0x00, 0x00, 0x00, 0x00,
   0x00, 0x00, 0x00, 0x00, 0x00, 0x00, 0x00, 0x00 };
