#define north_south_dir_south_width 64
#define north_south_dir_south_height 64
static unsigned char north_south_dir_south_bits[] = {
   0x00, 0x00, 0x00, 0x00, 0x00, 0x00, 0x00, 0x00, 0x00, 0x00, 0x00, 0x00,
   0x00, 0x00, 0x00, 0x00, 0x00, 0x00, 0x00, 0x00, 0x00, 0x00, 0x00, 0x00,
   0x00, 0x00, 0x00, 0x00, 0x00, 0x00, 0x00, 0x00, 0x00, 0x00, 0x00, 0x00,
   0x00, 0x00, 0x00, 0x00, 0x00, 0x00, 0x00, 0x00, 0x00, 0x00, 0x00, 0x00,
   0x00, 0x00, 0x00, 0x00, 0x00, 0x00, 0x00, 0x00, 0x00, 0x00, 0x00, 0x00,
   0x00, 0x00, 0x00, 0x00, 0x00, 0x00, 0x00, 0xc0, 0x07, 0x00, 0x00, 0x00,
   0x00, 0x00, 0x00, 0xc0, 0x07, 0x00, 0x00, 0x00, 0x00, 0x00, 0x00, 0xc0,
   0x07, 0x00, 0x00, 0x00, 0x00, 0x00, 0x00, 0xc0, 0x07, 0x00, 0x00, 0x00,
   0x00, 0x00, 0x00, 0xc0, 0x07, 0x00, 0x00, 0x00, 0x00, 0x00, 0x00, 0x3e,
   0xf8, 0x00, 0x00, 0x00, 0x00, 0x00, 0x00, 0x3e, 0xf8, 0x00, 0x00, 0x00,
   0x00, 0x00, 0x00, 0x3e, 0xf8, 0x00, 0x00, 0x00, 0x00, 0x00, 0x00, 0x3e,
   0xf8, 0x00, 0x00, 0x00, 0x00, 0x00, 0x00, 0x3e, 0xf8, 0x00, 0x00, 0x00,
   0x00, 0x00, 0xf0, 0xc1, 0x07, 0x1f, 0x00, 0x00, 0x00, 0x00, 0xf0, 0xc1,
   0x07, 0x1f, 0x00, 0x00, 0x00, 0x00, 0xf0, 0xc1, 0x07, 0x1f, 0x00, 0x00,
   0x00, 0x00, 0xf0, 0xc1, 0x07, 0x1f, 0x00, 0x00, 0x00, 0x00, 0xf0, 0xc1,
   0x07, 0x1f, 0x00, 0x00, 0x00, 0x00, 0x00, 0xc0, 0x07, 0x00, 0x00, 0x00,
   0x00, 0x00, 0x00, 0xc0, 0x07, 0x00, 0x00, 0x00, 0x00, 0x00, 0x00, 0xc0,
   0x07, 0x00, 0x00, 0x00, 0x00, 0x00, 0x00, 0xc0, 0x07, 0x00, 0x00, 0x00,
   0x00, 0x00, 0x00, 0xc0, 0x07, 0x00, 0x00, 0x00, 0x00, 0x00, 0x00, 0xc0,
   0x07, 0x00, 0x00, 0x00, 0x00, 0x00, 0x00, 0xc0, 0x07, 0x00, 0x00, 0x00,
   0x00, 0x00, 0x00, 0xc0, 0x07, 0x00, 0x00, 0x00, 0x00, 0x00, 0x00, 0xc0,
   0x07, 0x00, 0x00, 0x00, 0x00, 0x00, 0x00, 0xc0, 0x07, 0x00, 0x00, 0x00,
   0x00, 0x00, 0x00, 0xc0, 0x07, 0x00, 0x00, 0x00, 0x00, 0x00, 0x00, 0xc0,
   0x07, 0x00, 0x00, 0x00, 0x00, 0x00, 0x00, 0xc0, 0x07, 0x00, 0x00, 0x00,
   0x00, 0x00, 0x00, 0xc0, 0x07, 0x00, 0x00, 0x00, 0x00, 0x00, 0x00, 0xc0,
   0x07, 0x00, 0x00, 0x00, 0x00, 0x00, 0x00, 0xc0, 0x07, 0x00, 0x00, 0x00,
   0x00, 0x00, 0x00, 0xc0, 0x07, 0x00, 0x00, 0x00, 0x00, 0x00, 0x00, 0xc0,
   0x07, 0x00, 0x00, 0x00, 0x00, 0x00, 0x00, 0xc0, 0x07, 0x00, 0x00, 0x00,
   0x00, 0x00, 0x00, 0xc0, 0x07, 0x00, 0x00, 0x00, 0x00, 0x00, 0x00, 0xc0,
   0x07, 0x00, 0x00, 0x00, 0x00, 0x00, 0xe0, 0xc3, 0x87, 0x0f, 0x00, 0x00,
   0x00, 0x00, 0xe0, 0xc3, 0x87, 0x0f, 0x00, 0x00, 0x00, 0x00, 0xe0, 0xc3,
   0x87, 0x0f, 0x00, 0x00, 0x00, 0x00, 0xe0, 0xc3, 0x87, 0x0f, 0x00, 0x00,
   0x00, 0x00, 0xe0, 0xc3, 0x87, 0x0f, 0x00, 0x00, 0x00, 0x00, 0x00, 0xfc,
   0xff, 0x00, 0x00, 0x00, 0x00, 0x00, 0x00, 0x7c, 0xf8, 0x00, 0x00, 0x00,
   0x00, 0x00, 0x00, 0x7c, 0xf8, 0x00, 0x00, 0x00, 0x00, 0x00, 0x00, 0x7c,
   0xf8, 0x00, 0x00, 0x00, 0x00, 0x00, 0x00, 0x7c, 0xf8, 0x00, 0x00, 0x00,
   0x00, 0x00, 0x00, 0x80, 0x0f, 0x00, 0x00, 0x00, 0x00, 0x00, 0x00, 0x80,
   0x0f, 0x00, 0x00, 0x00, 0x00, 0x00, 0x00, 0x80, 0x0f, 0x00, 0x00, 0x00,
   0x00, 0x00, 0x00, 0x80, 0x0f, 0x00, 0x00, 0x00, 0x00, 0x00, 0x00, 0x80,
   0x0f, 0x00, 0x00, 0x00, 0x00, 0x00, 0x00, 0x00, 0x00, 0x00, 0x00, 0x00,
   0x00, 0x00, 0x00, 0x00, 0x00, 0x00, 0x00, 0x00, 0x00, 0x00, 0x00, 0x00,
   0x00, 0x00, 0x00, 0x00, 0x00, 0x00, 0x00, 0x00, 0x00, 0x00, 0x00, 0x00,
   0x00, 0x00, 0x00, 0x00, 0x00, 0x00, 0x00, 0x00 };
