#define positive_reward_width 64
#define positive_reward_height 64
static unsigned char positive_reward_bits[] = {
   0x00, 0x00, 0x00, 0x00, 0x00, 0x00, 0x00, 0x00, 0x00, 0x00, 0x00, 0x00,
   0x00, 0x00, 0x00, 0x00, 0x00, 0x00, 0x00, 0x00, 0x00, 0x00, 0x00, 0x00,
   0x00, 0x00, 0x00, 0x00, 0x00, 0x00, 0x00, 0x00, 0x00, 0x00, 0x00, 0x00,
   0x00, 0xc0, 0xe7, 0x03, 0x00, 0x00, 0x00, 0x00, 0x00, 0xc0, 0xe7, 0x03,
   0x00, 0x00, 0x00, 0x00, 0x00, 0xc0, 0xe7, 0x03, 0x00, 0x00, 0x00, 0x00,
   0x00, 0xc0, 0xe7, 0x03, 0x00, 0x00, 0x00, 0x00, 0x00, 0xc0, 0xe7, 0x03,
   0x00, 0x00, 0x00, 0x00, 0x00, 0xc0, 0xe7, 0x03, 0x00, 0x00, 0x00, 0x00,
   0x00, 0xc0, 0xe7, 0x03, 0x00, 0x00, 0x00, 0x00, 0x00, 0xc0, 0xe7, 0x03,
   0x00, 0x00, 0x00, 0x00, 0x00, 0xc0, 0xe7, 0x03, 0x00, 0x00, 0x00, 0x00,
   0x00, 0xc0, 0xe7, 0x03, 0x00, 0x00, 0x00, 0x00, 0x00, 0xc0, 0xe7, 0x03,
   0x00, 0x00, 0x00, 0x00, 0x00, 0xc0, 0xe7, 0x03, 0x00, 0x00, 0x00, 0x00,
   0x00, 0xc0, 0xe7, 0x03, 0x00, 0x00, 0x00, 0x00, 0x00, 0xc0, 0xe7, 0x03,
   0x00, 0x00, 0x00, 0x00, 0x00, 0xc0, 0xe7, 0x03, 0x00, 0x00, 0x00, 0x00,
   0x00, 0xc0, 0xe7, 0x03, 0x00, 0x00, 0x00, 0x00, 0x00, 0xc0, 0xe7, 0x03,
   0x00, 0x00, 0x00, 0x00, 0x00, 0xc0, 0xe7, 0x03, 0x00, 0x00, 0x00, 0x00,
   0x00, 0xc0, 0xe7, 0x03, 0x00, 0x00, 0x00, 0x00, 0x00, 0xc0, 0xe7, 0x03,
   0x00, 0x00, 0x00, 0x00, 0x00, 0xc0, 0xe7, 0x03, 0x00, 0x00, 0x00, 0x00,
   0x00, 0xc0, 0xe7, 0x03, 0x00, 0x00, 0x00, 0x00, 0x00, 0xc0, 0xe7, 0x03,
   0x00, 0x00, 0x00, 0x00, 0x00, 0xc0, 0xe7, 0x03, 0x00, 0x00, 0x00, 0x00,
   0x00, 0x00, 0x00, 0x00, 0x00, 0x00, 0x00, 0x00, 0x00, 0x00, 0x00, 0x00,
   0x00, 0x00, 0x00, 0x00, 0x00, 0x00, 0x00, 0x00, 0x00, 0x00, 0x00, 0x00,
   0x00, 0x00, 0x00, 0x00, 0x00, 0x00, 0x00, 0x00, 0x00, 0x00, 0x00, 0x00,
   0x00, 0x00, 0x00, 0x00, 0x00, 0x00, 0x00, 0x00, 0x00, 0x00, 0x00, 0x00,
   0x00, 0x00, 0x00, 0x00, 0x00, 0x00, 0x00, 0x00, 0x00, 0x00, 0x00, 0x00,
   0x00, 0x00, 0x00, 0x00, 0x00, 0x00, 0x00, 0x00, 0x00, 0x00, 0x00, 0x00,
   0x00, 0x00, 0x00, 0x00, 0x00, 0x00, 0x00, 0x00, 0x00, 0x00, 0x00, 0x00,
   0x00, 0x00, 0x00, 0x00, 0x00, 0x00, 0x00, 0x00, 0x00, 0x00, 0x00, 0x00,
   0x00, 0x00, 0x00, 0x00, 0x00, 0x00, 0x00, 0x00, 0x00, 0x00, 0x00, 0x00,
   0x00, 0x00, 0x00, 0x00, 0x00, 0x00, 0x00, 0x00, 0x00, 0x00, 0x00, 0x00,
   0x00, 0x00, 0x00, 0x00, 0x00, 0x00, 0x00, 0x00, 0x00, 0x00, 0x00, 0x00,
   0x00, 0x00, 0x00, 0x00, 0x00, 0x00, 0x00, 0x00, 0x00, 0x00, 0x00, 0x00,
   0x00, 0x00, 0x00, 0x00, 0x00, 0x00, 0x00, 0x00, 0x00, 0x00, 0x00, 0x00,
   0x00, 0x00, 0x00, 0x00, 0x00, 0x00, 0x00, 0x00, 0x00, 0x00, 0x00, 0x00,
   0x00, 0x00, 0x00, 0x00, 0x00, 0x00, 0x00, 0x00, 0x00, 0x00, 0x00, 0x00,
   0x00, 0x00, 0x00, 0x00, 0x00, 0x00, 0x00, 0x00, 0x00, 0x00, 0x00, 0x00,
   0x00, 0x00, 0x00, 0x00, 0x00, 0x00, 0x00, 0x00, 0x00, 0x00, 0x00, 0x00,
   0x00, 0x00, 0x00, 0x00, 0x00, 0x00, 0x00, 0x00, 0x00, 0x00, 0x00, 0x00,
   0x00, 0x00, 0x00, 0x00, 0x00, 0x00, 0x00, 0x00, 0x00, 0x00, 0x00, 0x00,
   0x00, 0x00, 0x00, 0x00, 0x00, 0x00, 0x00, 0x00, 0x00, 0x00, 0x00, 0x00,
   0x00, 0x00, 0x00, 0x00, 0x00, 0x00, 0x00, 0x00, 0x00, 0x00, 0x00, 0x00,
   0x00, 0x00, 0x00, 0x00, 0x00, 0x00, 0x00, 0x00, 0x00, 0x00, 0x00, 0x00,
   0x00, 0x00, 0x00, 0x00, 0x00, 0x00, 0x00, 0x00, 0x00, 0x00, 0x00, 0x00,
   0x00, 0x00, 0x00, 0x00, 0x00, 0x00, 0x00, 0x00 };
