#define steps1_west_width 64
#define steps1_west_height 64
static unsigned char steps1_west_bits[] = {
   0x00, 0x00, 0x00, 0x00, 0x00, 0x00, 0x00, 0x00, 0x00, 0x00, 0x00, 0x00,
   0x00, 0x00, 0x00, 0x00, 0x00, 0x00, 0x00, 0x00, 0x00, 0x00, 0x00, 0x00,
   0x00, 0x00, 0x00, 0x00, 0x00, 0x00, 0x00, 0x00, 0x00, 0x00, 0x00, 0x00,
   0x00, 0x00, 0x00, 0x00, 0x00, 0x00, 0x00, 0x00, 0x00, 0x00, 0x00, 0x00,
   0x00, 0x00, 0x00, 0x00, 0x00, 0x00, 0x00, 0x00, 0x00, 0x00, 0x00, 0x00,
   0x00, 0x00, 0x00, 0x00, 0x00, 0x00, 0x00, 0x00, 0x00, 0x00, 0x00, 0x00,
   0x00, 0x00, 0x00, 0x00, 0x00, 0x00, 0x00, 0x00, 0x00, 0x00, 0x00, 0x00,
   0x00, 0x00, 0x00, 0x00, 0x00, 0x00, 0x00, 0x00, 0x00, 0x00, 0x00, 0x00,
   0x00, 0x00, 0x00, 0x00, 0x00, 0x00, 0x00, 0x00, 0x00, 0x00, 0x00, 0x00,
   0x00, 0x00, 0x00, 0x00, 0x00, 0x00, 0x00, 0x00, 0x00, 0x00, 0x00, 0x00,
   0x00, 0x00, 0x00, 0x00, 0x00, 0x00, 0x00, 0xe0, 0x00, 0x00, 0x00, 0x00,
   0x00, 0x00, 0x00, 0xf0, 0x00, 0x00, 0x00, 0x00, 0x80, 0x03, 0x00, 0xf8,
   0x00, 0x00, 0x00, 0x00, 0xe0, 0x0f, 0x00, 0xfc, 0x00, 0x00, 0x00, 0x00,
   0xf0, 0x1f, 0x00, 0xfc, 0x00, 0x00, 0x00, 0x00, 0xf0, 0x1f, 0x00, 0xfc,
   0x00, 0x00, 0x08, 0x00, 0xf0, 0x1f, 0x00, 0xf8, 0x01, 0x00, 0x7f, 0x00,
   0xf8, 0x3f, 0x00, 0xf0, 0x07, 0x80, 0xff, 0x00, 0xf0, 0x1f, 0x00, 0xe0,
   0x07, 0x80, 0xff, 0x00, 0xf0, 0x1f, 0x00, 0x00, 0x0f, 0x80, 0xff, 0xe0,
   0xf0, 0x1f, 0x00, 0x00, 0x07, 0xc0, 0xff, 0xf1, 0xe1, 0x0f, 0xf0, 0x01,
   0x07, 0x80, 0xff, 0xf8, 0x83, 0x03, 0xf8, 0x03, 0x01, 0x80, 0xff, 0xf8,
   0x03, 0x00, 0xfc, 0x07, 0x80, 0x8f, 0xff, 0xf8, 0x03, 0x00, 0xfc, 0x07,
   0xc0, 0x1f, 0x7f, 0xf0, 0x01, 0x00, 0xfc, 0x07, 0xe0, 0x3f, 0x08, 0xe0,
   0x00, 0x00, 0xfc, 0x07, 0xe1, 0x3f, 0x00, 0x00, 0x00, 0x00, 0xfc, 0x07,
   0xe0, 0x3f, 0x00, 0x00, 0x00, 0x00, 0xf8, 0x03, 0xe0, 0x3f, 0x00, 0x00,
   0x00, 0x00, 0xf0, 0x01, 0xe0, 0x3f, 0x00, 0x00, 0x00, 0x00, 0x00, 0x00,
   0xc0, 0x1f, 0x00, 0x00, 0x00, 0x00, 0x00, 0x00, 0x80, 0x0f, 0x00, 0x00,
   0x00, 0x00, 0x00, 0x00, 0x00, 0x00, 0x00, 0x00, 0x00, 0x00, 0x00, 0x00,
   0x00, 0x00, 0x00, 0x00, 0x00, 0x00, 0x00, 0x00, 0x00, 0x00, 0x00, 0x00,
   0x00, 0x00, 0x00, 0x00, 0x00, 0x00, 0x00, 0x00, 0x00, 0x00, 0x00, 0x00,
   0x00, 0x00, 0x00, 0x00, 0x00, 0x00, 0x00, 0x00, 0x00, 0x00, 0x00, 0x00,
   0x00, 0x00, 0x00, 0x00, 0x00, 0x00, 0x00, 0x00, 0x00, 0x00, 0x00, 0x00,
   0x00, 0x00, 0x00, 0x00, 0x00, 0x00, 0x00, 0x00, 0x00, 0x00, 0x00, 0x00,
   0x00, 0x00, 0x00, 0x00, 0x00, 0x00, 0x00, 0x00, 0x00, 0x00, 0x00, 0x00,
   0x00, 0x00, 0x00, 0x00, 0x00, 0x00, 0x00, 0x00, 0x00, 0x00, 0x00, 0x00,
   0x00, 0x00, 0x00, 0x00, 0x00, 0x00, 0x00, 0x00, 0x00, 0x00, 0x00, 0x00,
   0x00, 0x00, 0x00, 0x00, 0x00, 0x00, 0x00, 0x00, 0x00, 0x00, 0x00, 0x00,
   0x00, 0x00, 0x00, 0x00, 0x00, 0x00, 0x00, 0x00, 0x00, 0x00, 0x00, 0x00,
   0x00, 0x00, 0x00, 0x00, 0x00, 0x00, 0x00, 0x00, 0x00, 0x00, 0x00, 0x00,
   0x00, 0x00, 0x00, 0x00, 0x00, 0x00, 0x00, 0x00, 0x00, 0x00, 0x00, 0x00,
   0x00, 0x00, 0x00, 0x00, 0x00, 0x00, 0x00, 0x00, 0x00, 0x00, 0x00, 0x00,
   0x00, 0x00, 0x00, 0x00, 0x00, 0x00, 0x00, 0x00, 0x00, 0x00, 0x00, 0x00,
   0x00, 0x00, 0x00, 0x00, 0x00, 0x00, 0x00, 0x00, 0x00, 0x00, 0x00, 0x00,
   0x00, 0x00, 0x00, 0x00, 0x00, 0x00, 0x00, 0x00, 0x00, 0x00, 0x00, 0x00,
   0x00, 0x00, 0x00, 0x00, 0x00, 0x00, 0x00, 0x00};
