#define cake_width 16
#define cake_height 16
static unsigned char cake_bits[] = {
   0x20, 0x02, 0x00, 0x00, 0x20, 0x02, 0x20, 0x02, 0x20, 0x02, 0xf8, 0x1f,
   0x08, 0x10, 0x28, 0x10, 0x08, 0x11, 0x48, 0x14, 0x78, 0x10, 0x88, 0x10,
   0x28, 0x10, 0xfe, 0x3f, 0x00, 0x00, 0x00, 0x00};
