#define patch_heavy_south_width 64
#define patch_heavy_south_height 64
static unsigned char patch_heavy_south_bits[] = {
   0x00, 0x00, 0x00, 0x00, 0x00, 0x00, 0x00, 0x00, 0x00, 0x00, 0x00, 0x00,
   0x00, 0x00, 0x00, 0x00, 0x00, 0x00, 0x00, 0x00, 0x00, 0x00, 0x00, 0x00,
   0x00, 0x00, 0x00, 0x00, 0x00, 0x00, 0x00, 0x00, 0x00, 0x00, 0x00, 0x00,
   0x00, 0x00, 0x00, 0x00, 0x00, 0x00, 0x00, 0x00, 0x00, 0x00, 0x00, 0x00,
   0xe0, 0xff, 0xff, 0xff, 0xff, 0xff, 0xff, 0x0f, 0x20, 0x00, 0x00, 0x00,
   0x00, 0x00, 0x00, 0x08, 0x20, 0x00, 0x00, 0x00, 0x00, 0x00, 0x00, 0x08,
   0x20, 0x00, 0x00, 0x00, 0x00, 0x00, 0x00, 0x08, 0x20, 0x00, 0x00, 0x00,
   0x00, 0x00, 0x00, 0x08, 0x20, 0x00, 0x00, 0x00, 0x00, 0x00, 0x00, 0x08,
   0x20, 0xfc, 0xff, 0xff, 0xff, 0xff, 0x7f, 0x08, 0x20, 0x04, 0x00, 0x00,
   0x00, 0x00, 0x40, 0x08, 0x20, 0x04, 0x00, 0x00, 0x00, 0x00, 0x40, 0x08,
   0x20, 0x04, 0x00, 0x00, 0x00, 0x00, 0x40, 0x08, 0x20, 0x04, 0x00, 0x00,
   0x00, 0x00, 0x40, 0x08, 0x20, 0x04, 0x00, 0x00, 0x00, 0x00, 0x40, 0x08,
   0x20, 0x04, 0xff, 0xff, 0xff, 0xff, 0x43, 0x08, 0x20, 0x04, 0x01, 0x00,
   0x00, 0x00, 0x42, 0x08, 0x20, 0x04, 0x01, 0x00, 0x00, 0x00, 0x42, 0x08,
   0x20, 0x04, 0x01, 0x00, 0x00, 0x00, 0x42, 0x08, 0x20, 0x04, 0x01, 0x00,
   0x00, 0x00, 0x42, 0x08, 0x20, 0x04, 0x01, 0x00, 0x00, 0x00, 0x42, 0x08,
   0x20, 0x04, 0x01, 0x00, 0x00, 0x00, 0x42, 0x08, 0x20, 0x04, 0xc1, 0xff,
   0xff, 0x0f, 0x42, 0x08, 0x20, 0x04, 0x41, 0x00, 0x00, 0x08, 0x42, 0x08,
   0x20, 0x04, 0x41, 0x00, 0x00, 0x08, 0x42, 0x08, 0x20, 0x04, 0x41, 0x00,
   0x00, 0x08, 0x42, 0x08, 0x20, 0x04, 0x41, 0x00, 0x00, 0x08, 0x42, 0x08,
   0x20, 0x04, 0x41, 0xfc, 0xff, 0x08, 0x42, 0x08, 0x20, 0x04, 0x41, 0x04,
   0x80, 0x08, 0x42, 0x08, 0x20, 0x04, 0x41, 0x04, 0x80, 0x08, 0x42, 0x08,
   0x20, 0x04, 0x41, 0x04, 0x80, 0x08, 0x42, 0x08, 0x20, 0x04, 0x41, 0xfc,
   0xff, 0x08, 0x42, 0x08, 0x20, 0x04, 0x41, 0x00, 0x00, 0x08, 0x42, 0x08,
   0x20, 0x04, 0x41, 0x00, 0x00, 0x08, 0x42, 0x08, 0x20, 0x04, 0x41, 0x00,
   0x00, 0x08, 0x42, 0x08, 0x20, 0x04, 0x41, 0x00, 0x00, 0x08, 0x42, 0x08,
   0x20, 0x04, 0xc1, 0xff, 0xff, 0x0f, 0x42, 0x08, 0x20, 0x04, 0x01, 0x00,
   0x00, 0x00, 0x42, 0x08, 0x20, 0x04, 0x01, 0x00, 0x00, 0x00, 0x42, 0x08,
   0x20, 0x04, 0x01, 0x00, 0x00, 0x00, 0x42, 0x08, 0x20, 0x04, 0x01, 0x00,
   0x00, 0x00, 0x42, 0x08, 0x20, 0x04, 0x01, 0x00, 0x00, 0x00, 0x42, 0x08,
   0x20, 0x04, 0xff, 0xff, 0xff, 0xff, 0x43, 0x08, 0x20, 0x04, 0x00, 0x00,
   0x00, 0x00, 0x40, 0x08, 0x20, 0x04, 0x00, 0x00, 0x00, 0x00, 0x40, 0x08,
   0x20, 0x04, 0x00, 0x00, 0x00, 0x00, 0x40, 0x08, 0x20, 0x04, 0x00, 0x00,
   0x00, 0x00, 0x40, 0x08, 0x20, 0x04, 0x00, 0x00, 0x00, 0x00, 0x40, 0x08,
   0x20, 0xfc, 0xff, 0xff, 0xff, 0xff, 0x7f, 0x08, 0x20, 0x00, 0x00, 0x00,
   0x00, 0x00, 0x00, 0x08, 0x20, 0x00, 0x00, 0x00, 0x00, 0x00, 0x00, 0x08,
   0x20, 0x00, 0x00, 0x00, 0x00, 0x00, 0x00, 0x08, 0x20, 0x00, 0x00, 0x00,
   0x00, 0x00, 0x00, 0x08, 0x20, 0x00, 0x00, 0x00, 0x00, 0x00, 0x00, 0x08,
   0xe0, 0xff, 0xff, 0xff, 0xff, 0xff, 0xff, 0x0f, 0x00, 0x00, 0x00, 0x00,
   0x00, 0x00, 0x00, 0x00, 0x00, 0x00, 0x00, 0x00, 0x00, 0x00, 0x00, 0x00,
   0x00, 0x00, 0x00, 0x00, 0x00, 0x00, 0x00, 0x00, 0x00, 0x00, 0x00, 0x00,
   0x00, 0x00, 0x00, 0x00, 0x00, 0x00, 0x00, 0x00, 0x00, 0x00, 0x00, 0x00,
   0x00, 0x00, 0x00, 0x00, 0x00, 0x00, 0x00, 0x00};
