#define patch_lighter_south_width 64
#define patch_lighter_south_height 64
static unsigned char patch_lighter_south_bits[] = {
   0x00, 0x00, 0x00, 0x00, 0x00, 0x00, 0x00, 0x00, 0x00, 0x00, 0x00, 0x00,
   0x00, 0x00, 0x00, 0x00, 0x00, 0x00, 0x00, 0x00, 0x00, 0x00, 0x00, 0x00,
   0x00, 0x00, 0x00, 0x00, 0x00, 0x00, 0x00, 0x00, 0x00, 0x00, 0x00, 0x00,
   0x00, 0x00, 0x00, 0x00, 0x00, 0x00, 0x00, 0x00, 0x00, 0x00, 0x00, 0x00,
   0x00, 0x00, 0x00, 0x00, 0x00, 0x00, 0x00, 0x00, 0x00, 0x00, 0x00, 0x00,
   0x00, 0x00, 0x00, 0x00, 0x00, 0x00, 0x00, 0x00, 0x00, 0x00, 0x00, 0x00,
   0x00, 0x00, 0x00, 0x00, 0x00, 0x00, 0x00, 0x00, 0x00, 0x04, 0x00, 0x00,
   0x00, 0x80, 0x00, 0x00, 0x00, 0x04, 0x00, 0x08, 0x00, 0x80, 0x00, 0x00,
   0x00, 0x04, 0x00, 0x08, 0x00, 0x80, 0x00, 0x00, 0x00, 0x04, 0x00, 0x08,
   0x00, 0x80, 0x00, 0x00, 0x00, 0x04, 0x00, 0x08, 0x00, 0x80, 0x00, 0x00,
   0x00, 0x04, 0x00, 0x08, 0x00, 0x80, 0x00, 0x00, 0x00, 0x04, 0x00, 0x08,
   0x00, 0x80, 0x00, 0x00, 0x00, 0x04, 0x00, 0x08, 0x00, 0x80, 0x00, 0x00,
   0x00, 0x04, 0x00, 0x08, 0x00, 0x80, 0x00, 0x00, 0x00, 0x04, 0x00, 0x08,
   0x00, 0x80, 0x00, 0x00, 0x00, 0x04, 0x00, 0x08, 0x00, 0x80, 0x00, 0x00,
   0x00, 0x04, 0x00, 0x08, 0x00, 0x80, 0x00, 0x00, 0x00, 0x04, 0x00, 0x08,
   0x00, 0x80, 0x00, 0x00, 0x00, 0x04, 0x00, 0x08, 0x00, 0x80, 0x00, 0x00,
   0x00, 0x04, 0x00, 0x08, 0x00, 0x80, 0x00, 0x00, 0x00, 0x04, 0x00, 0x08,
   0x00, 0x80, 0x00, 0x00, 0x00, 0x04, 0x00, 0x08, 0x00, 0x80, 0x00, 0x00,
   0x00, 0x04, 0x00, 0x08, 0x00, 0x80, 0x00, 0x00, 0x00, 0x04, 0x00, 0x08,
   0x00, 0x80, 0x00, 0x00, 0x00, 0x04, 0x00, 0x08, 0x00, 0x80, 0x00, 0x00,
   0x00, 0x04, 0x00, 0x08, 0x00, 0x80, 0x00, 0x00, 0x00, 0x04, 0x00, 0x08,
   0x00, 0x80, 0x00, 0x00, 0x00, 0x04, 0x00, 0x08, 0x00, 0x80, 0x00, 0x00,
   0x00, 0x04, 0x00, 0x08, 0x00, 0x80, 0x00, 0x00, 0x00, 0x04, 0x00, 0x08,
   0x00, 0x80, 0x00, 0x00, 0x00, 0x04, 0x00, 0x08, 0x00, 0x80, 0x00, 0x00,
   0x00, 0x04, 0x00, 0x08, 0x00, 0x80, 0x00, 0x00, 0x00, 0x04, 0x00, 0x08,
   0x00, 0x80, 0x00, 0x00, 0x00, 0x04, 0x00, 0x08, 0x00, 0x80, 0x00, 0x00,
   0x00, 0x04, 0x00, 0x08, 0x00, 0x80, 0x00, 0x00, 0x00, 0x04, 0x00, 0x08,
   0x00, 0x80, 0x00, 0x00, 0x00, 0x04, 0x00, 0x08, 0x00, 0x80, 0x00, 0x00,
   0x00, 0x04, 0x00, 0x08, 0x00, 0x80, 0x00, 0x00, 0x00, 0x04, 0x00, 0x08,
   0x00, 0x80, 0x00, 0x00, 0x00, 0x04, 0x00, 0x08, 0x00, 0x80, 0x00, 0x00,
   0x00, 0x04, 0x00, 0x08, 0x00, 0x80, 0x00, 0x00, 0x00, 0x04, 0x00, 0x08,
   0x00, 0x80, 0x00, 0x00, 0x00, 0x04, 0x00, 0x08, 0x00, 0x80, 0x00, 0x00,
   0x00, 0x04, 0x00, 0x08, 0x00, 0x80, 0x00, 0x00, 0x00, 0x04, 0x00, 0x08,
   0x00, 0x80, 0x00, 0x00, 0x00, 0x04, 0x00, 0x08, 0x00, 0x80, 0x00, 0x00,
   0x00, 0x04, 0x00, 0x08, 0x00, 0x80, 0x00, 0x00, 0x00, 0x04, 0x00, 0x08,
   0x00, 0x80, 0x00, 0x00, 0x00, 0x04, 0x00, 0x08, 0x00, 0x80, 0x00, 0x00,
   0x00, 0x04, 0x00, 0x08, 0x00, 0x80, 0x00, 0x00, 0x00, 0x04, 0x00, 0x08,
   0x00, 0x80, 0x00, 0x00, 0x00, 0x00, 0x00, 0x00, 0x00, 0x00, 0x00, 0x00,
   0x00, 0x00, 0x00, 0x00, 0x00, 0x00, 0x00, 0x00, 0x00, 0x00, 0x00, 0x00,
   0x00, 0x00, 0x00, 0x00, 0x00, 0x00, 0x00, 0x00, 0x00, 0x00, 0x00, 0x00,
   0x00, 0x00, 0x00, 0x00, 0x00, 0x00, 0x00, 0x00, 0x00, 0x00, 0x00, 0x00,
   0x00, 0x00, 0x00, 0x00, 0x00, 0x00, 0x00, 0x00, 0x00, 0x00, 0x00, 0x00,
   0x00, 0x00, 0x00, 0x00, 0x00, 0x00, 0x00, 0x00};
