#define agent1_width 64
#define agent1_height 64
static unsigned char agent1_bits[] = {
   0x00, 0x00, 0x00, 0x00, 0x00, 0x00, 0x00, 0x00, 0x00, 0x00, 0x00, 0x00,
   0x00, 0x00, 0x00, 0x00, 0x00, 0x00, 0x00, 0x00, 0x00, 0x00, 0x00, 0x00,
   0x00, 0x00, 0x00, 0x00, 0x00, 0x00, 0x00, 0x00, 0x00, 0x00, 0x00, 0x00,
   0x00, 0x00, 0x00, 0x00, 0x00, 0x00, 0x00, 0x00, 0x00, 0x00, 0x00, 0x00,
   0x00, 0x00, 0x00, 0x00, 0x00, 0x00, 0x00, 0x00, 0x00, 0x00, 0x00, 0x00,
   0x00, 0x00, 0x00, 0x00, 0x00, 0x00, 0x00, 0x00, 0x00, 0x00, 0x00, 0x00,
   0x00, 0x00, 0x00, 0x00, 0x00, 0x08, 0x00, 0x00, 0x00, 0x00, 0x20, 0x04,
   0x08, 0x0c, 0x00, 0x00, 0x00, 0x00, 0x20, 0x84, 0x08, 0x04, 0x00, 0x00,
   0x00, 0x00, 0x20, 0xe4, 0x08, 0x04, 0x00, 0x00, 0x00, 0x00, 0x20, 0xe4,
   0x18, 0x04, 0x00, 0x00, 0x00, 0x00, 0x20, 0xe4, 0x18, 0x02, 0x00, 0x00,
   0x00, 0x00, 0x20, 0xe5, 0x18, 0x13, 0x00, 0x00, 0x00, 0xc0, 0xff, 0xff,
   0xff, 0xff, 0x1f, 0x00, 0x00, 0xc0, 0xff, 0xff, 0xff, 0xff, 0x1f, 0x00,
   0x00, 0xc0, 0x00, 0x00, 0x00, 0x00, 0x18, 0x00, 0x00, 0xc0, 0x00, 0x00,
   0x00, 0x00, 0x18, 0x00, 0x00, 0xc0, 0x00, 0x00, 0x00, 0x00, 0x18, 0x00,
   0x00, 0xc0, 0x00, 0x00, 0x00, 0x00, 0x18, 0x00, 0x00, 0xc0, 0x00, 0x00,
   0x00, 0x00, 0x18, 0x00, 0x00, 0xc0, 0x00, 0x00, 0x00, 0x00, 0x18, 0x00,
   0x00, 0xc0, 0x00, 0x00, 0x00, 0x00, 0x18, 0x00, 0x00, 0xc0, 0xe0, 0x03,
   0x00, 0x7c, 0x18, 0x00, 0x00, 0xc0, 0xc0, 0x01, 0x00, 0x38, 0x18, 0x00,
   0x00, 0xc0, 0x80, 0x00, 0x00, 0x10, 0x18, 0x00, 0x00, 0xc0, 0x00, 0x00,
   0x00, 0x00, 0x18, 0x00, 0x00, 0xc0, 0x00, 0x00, 0x00, 0x00, 0x18, 0x00,
   0x00, 0xc0, 0x00, 0x00, 0x00, 0x00, 0x18, 0x00, 0x00, 0xc0, 0x00, 0x00,
   0x00, 0x00, 0x18, 0x00, 0x00, 0xc0, 0x00, 0x00, 0x00, 0x00, 0x18, 0x00,
   0x80, 0xff, 0x00, 0x00, 0x00, 0x00, 0xf8, 0x0f, 0x80, 0xff, 0x00, 0x00,
   0x00, 0x00, 0xf8, 0x0f, 0x00, 0xc0, 0x00, 0x00, 0x00, 0x00, 0x18, 0x00,
   0x00, 0xc0, 0x00, 0x00, 0x00, 0x00, 0x18, 0x00, 0x00, 0xc0, 0x00, 0x00,
   0x00, 0x00, 0x18, 0x00, 0x00, 0xc0, 0x00, 0x0f, 0x00, 0x1e, 0x18, 0x00,
   0x00, 0xc0, 0x00, 0x02, 0x00, 0x04, 0x18, 0x00, 0x00, 0xc0, 0x00, 0x02,
   0x00, 0x04, 0x18, 0x00, 0x00, 0xc0, 0x00, 0x02, 0x00, 0x04, 0x18, 0x00,
   0x00, 0xc0, 0x00, 0x02, 0x00, 0x04, 0x18, 0x00, 0x00, 0xc0, 0x00, 0xfe,
   0xff, 0x07, 0x18, 0x00, 0x00, 0xc0, 0x00, 0x00, 0x00, 0x00, 0x18, 0x00,
   0x00, 0xc0, 0x00, 0x00, 0x00, 0x00, 0x18, 0x00, 0x00, 0xc0, 0x00, 0x00,
   0x00, 0x00, 0x18, 0x00, 0x00, 0xc0, 0x00, 0x00, 0x00, 0x00, 0x18, 0x00,
   0x00, 0xc0, 0x00, 0x00, 0x00, 0x00, 0x18, 0x00, 0x00, 0xc0, 0xff, 0xff,
   0xeb, 0xff, 0x1f, 0x00, 0x00, 0xc0, 0xff, 0xff, 0xff, 0xff, 0x1f, 0x00,
   0x00, 0x00, 0x00, 0x03, 0x00, 0x06, 0x00, 0x00, 0x00, 0x00, 0x00, 0x03,
   0x00, 0x06, 0x00, 0x00, 0x00, 0x00, 0x00, 0x03, 0x00, 0x06, 0x00, 0x00,
   0x00, 0x00, 0x80, 0x03, 0x00, 0x06, 0x00, 0x00, 0x00, 0x00, 0x80, 0x03,
   0x00, 0x0e, 0x00, 0x00, 0x00, 0x00, 0x80, 0x03, 0x00, 0x0e, 0x00, 0x00,
   0x00, 0x00, 0x80, 0x03, 0x00, 0x0e, 0x00, 0x00, 0x00, 0x00, 0x80, 0x03,
   0x00, 0x0e, 0x00, 0x00, 0x00, 0x00, 0x80, 0x03, 0x00, 0x0e, 0x00, 0x00,
   0x00, 0x00, 0xf8, 0x03, 0x00, 0xfe, 0x00, 0x00, 0x00, 0x00, 0xf8, 0x03,
   0x00, 0xfe, 0x00, 0x00, 0x00, 0x00, 0xf0, 0x03, 0x00, 0x7e, 0x00, 0x00,
   0x01, 0x00, 0x00, 0x00, 0x00, 0x00, 0x00, 0x00};
