#define agent1_north_width 64
#define agent1_north_height 64
static unsigned char agent1_north_bits[] = {
   0xfe, 0xff, 0xff, 0xff, 0xff, 0xff, 0xff, 0xff, 0xff, 0xff, 0x0f, 0xfc,
   0xff, 0x81, 0xff, 0xff, 0xff, 0xff, 0x07, 0xfc, 0xff, 0x01, 0xff, 0xff,
   0xff, 0xff, 0x07, 0xfc, 0xff, 0x01, 0xff, 0xff, 0xff, 0xff, 0x7f, 0xfc,
   0xff, 0xf1, 0xff, 0xff, 0xff, 0xff, 0x7f, 0xfc, 0xff, 0xf1, 0xff, 0xff,
   0xff, 0xff, 0x7f, 0xfc, 0xff, 0xf1, 0xff, 0xff, 0xff, 0xff, 0x7f, 0xfc,
   0xff, 0xf1, 0xff, 0xff, 0xff, 0xff, 0x7f, 0xfc, 0xff, 0xf1, 0xff, 0xff,
   0xff, 0xff, 0x7f, 0xfc, 0xff, 0xf9, 0xff, 0xff, 0xff, 0xff, 0xff, 0xfc,
   0xff, 0xf9, 0xff, 0xff, 0xff, 0xff, 0xff, 0xfc, 0xff, 0xf9, 0xff, 0xff,
   0xff, 0xff, 0xff, 0xfc, 0xff, 0xf9, 0xff, 0xff, 0xff, 0x3f, 0x00, 0x00,
   0x00, 0x00, 0xe0, 0xff, 0xff, 0x3f, 0x00, 0x00, 0x14, 0x00, 0xe0, 0xff,
   0xff, 0x3f, 0xff, 0xff, 0xff, 0xff, 0xe7, 0xff, 0xff, 0x3f, 0xff, 0xff,
   0xff, 0xff, 0xe7, 0xff, 0xff, 0x3f, 0xff, 0xff, 0xff, 0xff, 0xe7, 0xff,
   0xff, 0x3f, 0xff, 0xff, 0xff, 0xff, 0xe7, 0xff, 0xff, 0x3f, 0xff, 0xff,
   0xff, 0xff, 0xe7, 0xff, 0xff, 0x3f, 0xff, 0x01, 0x00, 0xf8, 0xe7, 0xff,
   0xff, 0x3f, 0xff, 0xfd, 0xff, 0xfb, 0xe7, 0xff, 0xff, 0x3f, 0xff, 0xfd,
   0xff, 0xfb, 0xe7, 0xff, 0xff, 0x3f, 0xff, 0xfd, 0xff, 0xfb, 0xe7, 0xff,
   0xff, 0x3f, 0xff, 0xfd, 0xff, 0xfb, 0xe7, 0xff, 0xff, 0x3f, 0xff, 0xf0,
   0xff, 0xe1, 0xe7, 0xff, 0xff, 0x3f, 0xff, 0xff, 0xff, 0xff, 0xe7, 0xff,
   0xff, 0x3f, 0xff, 0xff, 0xff, 0xff, 0xe7, 0xff, 0xff, 0x3f, 0xff, 0xff,
   0xff, 0xff, 0xe7, 0xff, 0x7f, 0x00, 0xff, 0xff, 0xff, 0xff, 0x07, 0xf0,
   0x7f, 0x00, 0xff, 0xff, 0xff, 0xff, 0x07, 0xf0, 0xff, 0x3f, 0xff, 0xff,
   0xff, 0xff, 0xe7, 0xff, 0xff, 0x3f, 0xff, 0xff, 0xff, 0xff, 0xe7, 0xff,
   0xff, 0x3f, 0xff, 0xff, 0xff, 0xff, 0xe7, 0xff, 0xff, 0x3f, 0xff, 0xff,
   0xff, 0xff, 0xe7, 0xff, 0xff, 0x3f, 0xff, 0xff, 0xff, 0xff, 0xe7, 0xff,
   0xff, 0x3f, 0x7f, 0xff, 0xff, 0xef, 0xe7, 0xff, 0xff, 0x3f, 0x3f, 0xfe,
   0xff, 0xc7, 0xe7, 0xff, 0xff, 0x3f, 0x1f, 0xfc, 0xff, 0x83, 0xe7, 0xff,
   0xff, 0x3f, 0xff, 0xff, 0xff, 0xff, 0xe7, 0xff, 0xff, 0x3f, 0xff, 0xff,
   0xff, 0xff, 0xe7, 0xff, 0xff, 0x3f, 0xff, 0xff, 0xff, 0xff, 0xe7, 0xff,
   0xff, 0x3f, 0xff, 0xff, 0xff, 0xff, 0xe7, 0xff, 0xff, 0x3f, 0xff, 0xff,
   0xff, 0xff, 0xe7, 0xff, 0xff, 0x3f, 0xff, 0xff, 0xff, 0xff, 0xe7, 0xff,
   0xff, 0x3f, 0xff, 0xff, 0xff, 0xff, 0xe7, 0xff, 0xff, 0x3f, 0x00, 0x00,
   0x00, 0x00, 0xe0, 0xff, 0xff, 0x3f, 0x00, 0x00, 0x00, 0x00, 0xe0, 0xff,
   0xff, 0xff, 0xdf, 0x1a, 0xe7, 0xec, 0xff, 0xff, 0xff, 0xff, 0xdf, 0x1b,
   0xe7, 0xfd, 0xff, 0xff, 0xff, 0xff, 0xdf, 0x1b, 0xe7, 0xfb, 0xff, 0xff,
   0xff, 0xff, 0xdf, 0x1b, 0xf7, 0xfb, 0xff, 0xff, 0xff, 0xff, 0xdf, 0x7b,
   0xf7, 0xfb, 0xff, 0xff, 0xff, 0xff, 0xdf, 0xfb, 0xf7, 0xf3, 0xff, 0xff,
   0xff, 0xff, 0xff, 0xff, 0xff, 0xf7, 0xff, 0xff, 0xff, 0xff, 0xff, 0xff,
   0xff, 0xff, 0xff, 0xff, 0xff, 0xff, 0xff, 0xff, 0xff, 0xff, 0xff, 0xff,
   0xff, 0xff, 0xff, 0xff, 0xff, 0xff, 0xff, 0xff, 0xff, 0xff, 0xff, 0xff,
   0xff, 0xff, 0xff, 0xff, 0xff, 0xff, 0xff, 0xff, 0xff, 0xff, 0xff, 0xff,
   0xff, 0xff, 0xff, 0xff, 0xff, 0xff, 0xff, 0xff, 0xff, 0xff, 0xff, 0xff,
   0xff, 0xff, 0xff, 0xff, 0xff, 0xff, 0xff, 0xff, 0xff, 0xff, 0xff, 0xff,
   0xff, 0xff, 0xff, 0xff, 0xff, 0xff, 0xff, 0xff};
