#define agent1_west_width 64
#define agent1_west_height 64
static unsigned char agent1_west_bits[] = {
   0xff, 0xff, 0xff, 0xff, 0xff, 0xff, 0xff, 0xff, 0xff, 0xff, 0xff, 0xff,
   0xff, 0xff, 0xff, 0xff, 0xff, 0xff, 0xff, 0xff, 0xff, 0xff, 0xff, 0xff,
   0xff, 0xff, 0xff, 0xff, 0xff, 0xff, 0xff, 0xff, 0xff, 0xff, 0xff, 0x9f,
   0xff, 0xff, 0xff, 0xff, 0xff, 0xff, 0xff, 0x9f, 0xff, 0xff, 0xff, 0xff,
   0xff, 0xff, 0xff, 0x9f, 0xff, 0xff, 0xff, 0xff, 0xff, 0xff, 0xff, 0x9f,
   0xff, 0xff, 0xff, 0xff, 0xff, 0xff, 0xff, 0x9f, 0xff, 0xff, 0xff, 0xff,
   0xff, 0xff, 0xff, 0x9f, 0xff, 0xff, 0xff, 0xff, 0xff, 0xff, 0xff, 0x9f,
   0xff, 0xff, 0xff, 0xff, 0xff, 0x1f, 0x00, 0x00, 0x00, 0x00, 0xff, 0xff,
   0xff, 0x1f, 0x00, 0x00, 0x00, 0x00, 0xff, 0xff, 0xff, 0x9f, 0xff, 0xff,
   0xff, 0x3f, 0xff, 0xff, 0xff, 0x9f, 0xff, 0xff, 0xff, 0x3f, 0xff, 0xff,
   0xff, 0x9f, 0xff, 0xff, 0xff, 0x3f, 0xff, 0xff, 0xf3, 0x9f, 0xff, 0xff,
   0xff, 0x3f, 0xff, 0xff, 0xf1, 0x9f, 0xff, 0xff, 0xbf, 0x3f, 0xff, 0xff,
   0xf1, 0x9f, 0xff, 0xff, 0x9f, 0x3f, 0xff, 0xff, 0xf1, 0x9f, 0xff, 0xfd,
   0x8f, 0x3f, 0xfe, 0xff, 0x01, 0x9e, 0xff, 0xfd, 0x9f, 0x3f, 0x9f, 0xff,
   0x01, 0x80, 0x0f, 0xfc, 0xbf, 0x3f, 0xc3, 0xff, 0x01, 0x80, 0xef, 0xfd,
   0xff, 0x3f, 0xfc, 0xff, 0xff, 0x9f, 0xef, 0xff, 0xff, 0x3f, 0xfe, 0xff,
   0xff, 0x9f, 0xef, 0xff, 0xff, 0x3f, 0xff, 0xff, 0xff, 0x9f, 0xef, 0xff,
   0xff, 0x3f, 0xff, 0xff, 0xff, 0x9f, 0xef, 0xff, 0xff, 0x3f, 0xff, 0xff,
   0xff, 0xdf, 0xef, 0xff, 0xff, 0x3f, 0xf8, 0xff, 0xff, 0x9f, 0xef, 0xff,
   0xff, 0x3f, 0xc0, 0xff, 0xff, 0xdf, 0xef, 0xff, 0xff, 0x3f, 0xff, 0xff,
   0xff, 0x9f, 0xef, 0xff, 0xff, 0x3f, 0xff, 0xff, 0xff, 0x9f, 0xef, 0xff,
   0xff, 0x3f, 0xff, 0xff, 0xff, 0x9f, 0xef, 0xff, 0xff, 0x3f, 0xe0, 0xff,
   0xff, 0x9f, 0xef, 0xff, 0xff, 0x3f, 0xf0, 0xff, 0xff, 0x9f, 0xef, 0xff,
   0xff, 0x3f, 0xf0, 0xff, 0xff, 0x9f, 0xef, 0xff, 0xff, 0x3f, 0xff, 0xff,
   0xff, 0x9f, 0xef, 0xfd, 0xff, 0x3f, 0xff, 0xff, 0xff, 0x9f, 0xef, 0xfd,
   0xff, 0x3f, 0xc0, 0xff, 0x01, 0x80, 0x0f, 0xfc, 0xbf, 0x3f, 0xff, 0xff,
   0x01, 0x80, 0xff, 0xfd, 0x9f, 0x3f, 0xfe, 0xff, 0x01, 0x9c, 0xff, 0xff,
   0x8f, 0x3f, 0xff, 0xff, 0xf1, 0x9f, 0xff, 0xff, 0x9f, 0x3f, 0xff, 0xff,
   0xf1, 0x9f, 0xff, 0xff, 0xbf, 0x3f, 0xc0, 0xff, 0xf1, 0x9f, 0xff, 0xff,
   0xff, 0x3f, 0xff, 0xff, 0xf3, 0x9f, 0xff, 0xff, 0xff, 0x3f, 0xff, 0xff,
   0xff, 0x9f, 0xff, 0xff, 0xff, 0x3f, 0xff, 0xff, 0xff, 0x9f, 0xff, 0xff,
   0xff, 0x3f, 0xff, 0xff, 0xff, 0x9f, 0xff, 0xff, 0xff, 0x3f, 0xff, 0xff,
   0xff, 0x1f, 0x00, 0x00, 0x00, 0x00, 0xff, 0xff, 0xff, 0x1f, 0x00, 0x00,
   0x00, 0x00, 0xff, 0xff, 0xff, 0xff, 0xff, 0x9f, 0xff, 0xff, 0xff, 0xff,
   0xff, 0xff, 0xff, 0x9f, 0xff, 0xff, 0xff, 0xff, 0xff, 0xff, 0xff, 0x9f,
   0xff, 0xff, 0xff, 0xff, 0xff, 0xff, 0xff, 0x9f, 0xff, 0xff, 0xff, 0xff,
   0xff, 0xff, 0xff, 0x9f, 0xff, 0xff, 0xff, 0xff, 0xff, 0xff, 0xff, 0x9f,
   0xff, 0xff, 0xff, 0xff, 0xff, 0xff, 0xff, 0x9f, 0xff, 0xff, 0xff, 0xff,
   0xff, 0xff, 0xff, 0xff, 0xff, 0xff, 0xff, 0xff, 0xff, 0xff, 0xff, 0xff,
   0xff, 0xff, 0xff, 0xff, 0xff, 0xff, 0xff, 0xff, 0xff, 0xff, 0xff, 0xff,
   0xff, 0xff, 0xff, 0xff, 0xff, 0xff, 0xff, 0xff, 0xff, 0xff, 0xff, 0xff,
   0xff, 0xff, 0xff, 0xff, 0xff, 0xff, 0xff, 0xff, 0xff, 0xff, 0xff, 0xff,
   0xfe, 0xff, 0xff, 0xff, 0xff, 0xff, 0xff, 0xff};
