#define bomb_sound_width 16
#define bomb_sound_height 16
static unsigned char bomb_sound_bits[] = {
   0xff, 0xff, 0xff, 0xff, 0xff, 0xff, 0xff, 0xff, 0xff, 0xff, 0x10, 0xc2,
   0xf7, 0xde, 0x7b, 0xef, 0xbd, 0xf7, 0xde, 0xfb, 0x10, 0x42, 0xff, 0xff,
   0xff, 0xff, 0xff, 0xff, 0xff, 0xff, 0xff, 0xff};
