#define patch_middle_south_width 64
#define patch_middle_south_height 64
static unsigned char patch_middle_south_bits[] = {
   0x00, 0x00, 0x00, 0x00, 0x00, 0x00, 0x00, 0x00, 0x00, 0x00, 0x00, 0x00,
   0x00, 0x00, 0x00, 0x00, 0x00, 0x00, 0x00, 0x00, 0x00, 0x00, 0x00, 0x00,
   0x00, 0x00, 0x00, 0x00, 0x00, 0x00, 0x00, 0x00, 0x00, 0x00, 0x00, 0x00,
   0x00, 0x00, 0x00, 0x00, 0x00, 0x00, 0x00, 0x00, 0x00, 0x00, 0x00, 0x00,
   0x00, 0x00, 0x00, 0x00, 0x00, 0x00, 0x00, 0x00, 0x00, 0x00, 0x00, 0x00,
   0x00, 0x00, 0x00, 0x00, 0x00, 0x00, 0x00, 0x00, 0x00, 0x00, 0x00, 0x00,
   0x00, 0x00, 0x00, 0x00, 0x00, 0x00, 0x00, 0x00, 0xe0, 0xff, 0xff, 0xff,
   0xff, 0xff, 0xff, 0x00, 0x20, 0x00, 0x00, 0x00, 0x00, 0x00, 0x80, 0x00,
   0x20, 0x00, 0x00, 0x00, 0x00, 0x00, 0x80, 0x00, 0x20, 0x00, 0x00, 0x00,
   0x00, 0x00, 0x80, 0x00, 0x20, 0x00, 0x00, 0x00, 0x00, 0x00, 0x80, 0x00,
   0x20, 0x00, 0x00, 0x00, 0x00, 0x00, 0x80, 0x00, 0x20, 0x00, 0x00, 0x00,
   0x00, 0x00, 0x80, 0x00, 0x20, 0x00, 0x00, 0x00, 0x00, 0x00, 0x80, 0x00,
   0x20, 0x00, 0x00, 0x00, 0x00, 0x00, 0x80, 0x00, 0x20, 0x00, 0x00, 0x00,
   0x00, 0x00, 0x80, 0x00, 0x20, 0x00, 0x00, 0x00, 0x00, 0x00, 0x80, 0x00,
   0x20, 0x00, 0xfe, 0xff, 0xff, 0xff, 0x81, 0x00, 0x20, 0x00, 0x02, 0x00,
   0x00, 0x00, 0x81, 0x00, 0x20, 0x00, 0x02, 0x00, 0x00, 0x00, 0x81, 0x00,
   0x20, 0x00, 0x02, 0x00, 0x00, 0x00, 0x81, 0x00, 0x20, 0x00, 0x02, 0x00,
   0x00, 0x00, 0x81, 0x00, 0x20, 0x00, 0x02, 0x00, 0x00, 0x00, 0x81, 0x00,
   0x20, 0x00, 0x02, 0x00, 0x00, 0x00, 0x81, 0x00, 0x20, 0x00, 0x02, 0x00,
   0x00, 0x00, 0x81, 0x00, 0x20, 0x00, 0x02, 0x00, 0x00, 0x00, 0x81, 0x00,
   0x20, 0x00, 0x02, 0xfc, 0xff, 0x01, 0x81, 0x00, 0x20, 0x00, 0x02, 0x04,
   0x00, 0x01, 0x81, 0x00, 0x20, 0x00, 0x02, 0x04, 0x00, 0x01, 0x81, 0x00,
   0x20, 0x00, 0x02, 0x04, 0x00, 0x01, 0x81, 0x00, 0x20, 0x00, 0x02, 0x04,
   0x00, 0x01, 0x81, 0x00, 0x20, 0x00, 0x02, 0x04, 0x00, 0x01, 0x81, 0x00,
   0x20, 0x00, 0x02, 0x04, 0x00, 0x01, 0x81, 0x00, 0x20, 0x00, 0x02, 0x04,
   0x00, 0x01, 0x81, 0x00, 0x20, 0x00, 0x02, 0xfc, 0xff, 0x01, 0x81, 0x00,
   0x20, 0x00, 0x02, 0x00, 0x00, 0x00, 0x81, 0x00, 0x20, 0x00, 0x02, 0x00,
   0x00, 0x00, 0x81, 0x00, 0x20, 0x00, 0x02, 0x00, 0x00, 0x00, 0x81, 0x00,
   0x20, 0x00, 0x02, 0x00, 0x00, 0x00, 0x81, 0x00, 0x20, 0x00, 0x02, 0x00,
   0x00, 0x00, 0x81, 0x00, 0x20, 0x00, 0x02, 0x00, 0x00, 0x00, 0x81, 0x00,
   0x20, 0x00, 0x02, 0x00, 0x00, 0x00, 0x81, 0x00, 0x20, 0x00, 0x02, 0x00,
   0x00, 0x00, 0x81, 0x00, 0x20, 0x00, 0xfe, 0xff, 0xff, 0xff, 0x81, 0x00,
   0x20, 0x00, 0x00, 0x00, 0x00, 0x00, 0x80, 0x00, 0x20, 0x00, 0x00, 0x00,
   0x00, 0x00, 0x80, 0x00, 0x20, 0x00, 0x00, 0x00, 0x00, 0x00, 0x80, 0x00,
   0x20, 0x00, 0x00, 0x00, 0x00, 0x00, 0x80, 0x00, 0x20, 0x00, 0x00, 0x00,
   0x00, 0x00, 0x80, 0x00, 0x20, 0x00, 0x00, 0x00, 0x00, 0x00, 0x80, 0x00,
   0x20, 0x00, 0x00, 0x00, 0x00, 0x00, 0x80, 0x00, 0xe0, 0xff, 0xff, 0xff,
   0xff, 0xff, 0xff, 0x00, 0x00, 0x00, 0x00, 0x00, 0x00, 0x00, 0x00, 0x00,
   0x00, 0x00, 0x00, 0x00, 0x00, 0x00, 0x00, 0x00, 0x00, 0x00, 0x00, 0x00,
   0x00, 0x00, 0x00, 0x00, 0x00, 0x00, 0x00, 0x00, 0x00, 0x00, 0x00, 0x00,
   0x00, 0x00, 0x00, 0x00, 0x00, 0x00, 0x00, 0x00, 0x00, 0x00, 0x00, 0x00,
   0x00, 0x00, 0x00, 0x00, 0x00, 0x00, 0x00, 0x00, 0x00, 0x00, 0x00, 0x00,
   0x00, 0x00, 0x00, 0x00, 0x00, 0x00, 0x00, 0x00};
