#define steps1_east_width 64
#define steps1_east_height 64
static unsigned char steps1_east_bits[] = {
   0x00, 0x00, 0x00, 0x00, 0x00, 0x00, 0x00, 0x00, 0x00, 0x00, 0x00, 0x00,
   0x00, 0x00, 0x00, 0x00, 0x00, 0x00, 0x00, 0x00, 0x00, 0x00, 0x00, 0x00,
   0x00, 0x00, 0x00, 0x00, 0x00, 0x00, 0x00, 0x00, 0x00, 0x00, 0x00, 0x00,
   0x00, 0x00, 0x00, 0x00, 0x00, 0x00, 0x00, 0x00, 0x00, 0x00, 0x00, 0x00,
   0x00, 0x00, 0x00, 0x00, 0x00, 0x00, 0x00, 0x00, 0x00, 0x00, 0x00, 0x00,
   0x00, 0x00, 0x00, 0x00, 0x00, 0x00, 0x00, 0x00, 0x00, 0x00, 0x00, 0x00,
   0x00, 0x00, 0x00, 0x00, 0x00, 0x00, 0x00, 0x00, 0x00, 0x00, 0x00, 0x00,
   0x00, 0x00, 0x00, 0x00, 0x00, 0x00, 0x00, 0x00, 0x00, 0x00, 0x00, 0x00,
   0x00, 0x00, 0x00, 0x00, 0x00, 0x00, 0x00, 0x00, 0x00, 0x00, 0x00, 0x00,
   0x00, 0x00, 0x00, 0x00, 0x00, 0x00, 0x00, 0x00, 0x00, 0x00, 0x00, 0x00,
   0x00, 0x00, 0x00, 0x00, 0x00, 0x00, 0x00, 0x00, 0x00, 0x00, 0x00, 0x00,
   0x00, 0x00, 0x00, 0x00, 0x00, 0x00, 0x00, 0x00, 0x00, 0x00, 0x00, 0x00,
   0x00, 0x00, 0x00, 0x00, 0x00, 0x00, 0x00, 0x00, 0x00, 0x00, 0x00, 0x00,
   0x00, 0x00, 0x00, 0x00, 0x00, 0x00, 0x00, 0x00, 0x00, 0x00, 0x00, 0x00,
   0x00, 0x00, 0x00, 0x00, 0x00, 0x00, 0x00, 0x00, 0x00, 0x00, 0x00, 0x00,
   0x00, 0x00, 0x00, 0x00, 0x00, 0x00, 0x00, 0x00, 0x00, 0x00, 0x00, 0x00,
   0x00, 0x00, 0x00, 0x00, 0x00, 0x00, 0x00, 0x00, 0x00, 0x00, 0x00, 0x00,
   0x00, 0x00, 0x00, 0x00, 0x00, 0x00, 0x00, 0x00, 0x00, 0x00, 0xf0, 0x01,
   0x00, 0x00, 0x00, 0x00, 0x00, 0x00, 0xf8, 0x03, 0x00, 0x00, 0x00, 0x00,
   0x00, 0x00, 0xfc, 0x07, 0x80, 0x0f, 0x00, 0x00, 0x00, 0x00, 0xfc, 0x07,
   0xc0, 0x1f, 0x00, 0x00, 0x00, 0x00, 0xfc, 0x07, 0xe0, 0x3f, 0x00, 0x00,
   0x00, 0x00, 0xfc, 0x87, 0xe0, 0x3f, 0x00, 0x00, 0x07, 0x10, 0xfc, 0x07,
   0xe0, 0x3f, 0x00, 0x80, 0x0f, 0xfe, 0xf8, 0x03, 0xe0, 0x3f, 0x00, 0xc0,
   0x1f, 0xff, 0xf1, 0x01, 0xe0, 0x3f, 0x00, 0xc0, 0x1f, 0xff, 0x01, 0x80,
   0xc0, 0x1f, 0xc0, 0xc1, 0x1f, 0xff, 0x01, 0xe0, 0x80, 0x0f, 0xf0, 0x87,
   0x8f, 0xff, 0x03, 0xe0, 0x00, 0x00, 0xf8, 0x0f, 0x07, 0xff, 0x01, 0xf0,
   0x00, 0x00, 0xf8, 0x0f, 0x00, 0xff, 0x01, 0xe0, 0x07, 0x00, 0xf8, 0x0f,
   0x00, 0xff, 0x01, 0xe0, 0x0f, 0x00, 0xfc, 0x1f, 0x00, 0xfe, 0x00, 0x80,
   0x1f, 0x00, 0xf8, 0x0f, 0x00, 0x10, 0x00, 0x00, 0x3f, 0x00, 0xf8, 0x0f,
   0x00, 0x00, 0x00, 0x00, 0x3f, 0x00, 0xf8, 0x0f, 0x00, 0x00, 0x00, 0x00,
   0x3f, 0x00, 0xf0, 0x07, 0x00, 0x00, 0x00, 0x00, 0x1f, 0x00, 0xc0, 0x01,
   0x00, 0x00, 0x00, 0x00, 0x0f, 0x00, 0x00, 0x00, 0x00, 0x00, 0x00, 0x00,
   0x07, 0x00, 0x00, 0x00, 0x00, 0x00, 0x00, 0x00, 0x00, 0x00, 0x00, 0x00,
   0x00, 0x00, 0x00, 0x00, 0x00, 0x00, 0x00, 0x00, 0x00, 0x00, 0x00, 0x00,
   0x00, 0x00, 0x00, 0x00, 0x00, 0x00, 0x00, 0x00, 0x00, 0x00, 0x00, 0x00,
   0x00, 0x00, 0x00, 0x00, 0x00, 0x00, 0x00, 0x00, 0x00, 0x00, 0x00, 0x00,
   0x00, 0x00, 0x00, 0x00, 0x00, 0x00, 0x00, 0x00, 0x00, 0x00, 0x00, 0x00,
   0x00, 0x00, 0x00, 0x00, 0x00, 0x00, 0x00, 0x00, 0x00, 0x00, 0x00, 0x00,
   0x00, 0x00, 0x00, 0x00, 0x00, 0x00, 0x00, 0x00, 0x00, 0x00, 0x00, 0x00,
   0x00, 0x00, 0x00, 0x00, 0x00, 0x00, 0x00, 0x00, 0x00, 0x00, 0x00, 0x00,
   0x00, 0x00, 0x00, 0x00, 0x00, 0x00, 0x00, 0x00, 0x00, 0x00, 0x00, 0x00,
   0x00, 0x00, 0x00, 0x00, 0x00, 0x00, 0x00, 0x00, 0x00, 0x00, 0x00, 0x00,
   0x00, 0x00, 0x00, 0x00, 0x00, 0x00, 0x00, 0x00};
